<svg xmlns="http://www.w3.org/2000/svg" viewBox="0 0 300 245"><defs><style>.cls-1{fill:#fff;}</style></defs><title>ja-ag</title><g id="Capa_2" data-name="Capa 2"><g id="icon_jarvis"><g id="ja-agg"><polygon class="cls-1" points="67.36 131.75 94.08 131.75 80.65 88.01 67.36 131.75"/><path class="cls-1" d="M245.14,0H54.86A54.86,54.86,0,0,0,0,54.86V190.14A54.86,54.86,0,0,0,54.86,245H245.14A54.86,54.86,0,0,0,300,190.14V54.86A54.86,54.86,0,0,0,245.14,0ZM108,178.15l-6.09-20.08H59.19l-5.93,20.08H14.86L60.6,56.46h41l45.72,121.69Zm167.54-17.51Q258.82,172,246,176.12t-30.42,4.11q-21.68,0-35.32-7.39a50.52,50.52,0,0,1-21.17-22q-7.51-14.61-7.51-33.53,0-19.92,8.21-34.66a53.26,53.26,0,0,1,24.08-22.37q12.36-5.89,33.28-5.89,20.17,0,30.18,3.65a39.25,39.25,0,0,1,16.6,11.33q6.6,7.68,9.92,19.47l-36.28,6.47A19.6,19.6,0,0,0,230,84.77q-5.35-3.66-13.66-3.65-12.36,0-19.71,8.59t-7.35,27.18q0,19.76,7.43,28.23t20.71,8.46a39.62,39.62,0,0,0,12-1.82,65.17,65.17,0,0,0,13.11-6.23V134.08H217.4V108.76h58.11Z"/></g></g></g></svg>