<svg xmlns="http://www.w3.org/2000/svg" viewBox="0 0 275.39 220.9"><defs><style>.cls-1{fill:#fff;}</style></defs><title>ja-board-white</title><g id="ja-board-white" data-name="ja-board-white"><g id="icon_jarvis"><g id="Agregar_o_quitar" data-name="Agregar o quitar"><path class="cls-1" d="M246.15,0H29.24A29.24,29.24,0,0,0,0,29.24V33A29.23,29.23,0,0,0,29.24,62.19H246.15A29.23,29.23,0,0,0,275.39,33V29.24A29.24,29.24,0,0,0,246.15,0ZM110.74,40H88V17.32h22.7Zm33.93,0H122V17.32h22.7Zm32.56,0h-22.7V17.32h22.7Z"/><path class="cls-1" d="M246.15,78.61H29.24A29.23,29.23,0,0,0,0,107.84v3.72A29.24,29.24,0,0,0,29.24,140.8H246.15a29.24,29.24,0,0,0,29.24-29.24v-3.72A29.23,29.23,0,0,0,246.15,78.61Zm-135.41,40H88V95.92h22.7Zm33.93,0H122V95.92h22.7Zm32.56,0h-22.7V95.92h22.7Z"/><path class="cls-1" d="M246.15,158.71H29.24A29.24,29.24,0,0,0,0,187.94v3.73A29.24,29.24,0,0,0,29.24,220.9H246.15a29.24,29.24,0,0,0,29.24-29.23v-3.73A29.24,29.24,0,0,0,246.15,158.71Zm-135.41,40H88V176h22.7Zm33.93,0H122V176h22.7Zm32.56,0h-22.7V176h22.7Z"/></g></g></g></svg>