<svg xmlns="http://www.w3.org/2000/svg" viewBox="0 0 300 245"><defs><style>.cls-1{fill:#3474ab;}</style></defs><title>ja-ip</title><g id="ja-ip" data-name="ja-ip"><g id="icon_jarvis"><g id="ja-ip"><path class="cls-1" d="M180.67,86.39H170v27.15h9.22q10.88,0,15.27-3.78a12.18,12.18,0,0,0,4.4-9.67A13.48,13.48,0,0,0,195,90.38Q191.22,86.39,180.67,86.39Z"/><path class="cls-1" d="M245.14,0H54.86A54.86,54.86,0,0,0,0,54.86V190.14A54.86,54.86,0,0,0,54.86,245H245.14A54.86,54.86,0,0,0,300,190.14V54.86A54.86,54.86,0,0,0,245.14,0ZM105.38,183.34H67.7V61.66h37.68Zm119-55.53q-11.07,10.38-33.82,10.38H170v45.15H132.19V61.66H194.7q20.42,0,30.59,9.71T235.46,99Q235.46,117.43,224.37,127.81Z"/></g></g></g></svg>