<svg xmlns="http://www.w3.org/2000/svg" viewBox="0 0 300 245"><defs><style>.cls-1{fill:#fff;}</style></defs><title>ja-ls</title><g id="Capa_2" data-name="Capa 2"><g id="icon_jarvis"><path id="ja-lsw" class="cls-1" d="M245.14,0H54.86A54.86,54.86,0,0,0,0,54.86V190.14A54.86,54.86,0,0,0,54.86,245H245.14A54.86,54.86,0,0,0,300,190.14V54.86A54.86,54.86,0,0,0,245.14,0ZM139.19,183.34H42.9V61.66H80.51v91.72h58.68Zm114.47-18a40.47,40.47,0,0,1-18.1,15q-11.61,5.12-29.3,5.11-31,0-43-11.95t-13.53-30.38l35.78-2.25q1.17,8.73,4.73,13.29,5.82,7.38,16.6,7.38,8.06,0,12.41-3.77a11.31,11.31,0,0,0,4.36-8.76,11.17,11.17,0,0,0-4.15-8.47q-4.16-3.73-19.26-7-24.73-5.57-35.27-14.78A29.69,29.69,0,0,1,154.3,95.19a31.87,31.87,0,0,1,5.44-17.72q5.43-8.34,16.35-13.12T206,59.58q23.33,0,35.57,8.67t14.57,27.6l-35.44,2.08c-1-5.48-2.92-9.46-5.94-12s-7.18-3.74-12.49-3.74q-6.56,0-9.88,2.78a8.54,8.54,0,0,0-3.32,6.77A6.78,6.78,0,0,0,191.82,97q2.66,2.4,12.62,4.48,24.65,5.31,35.32,10.75t15.52,13.49a34.17,34.17,0,0,1,4.86,18A38.55,38.55,0,0,1,253.66,165.33Z"/></g></g></svg>