<svg xmlns="http://www.w3.org/2000/svg" viewBox="0 0 372.31 423.12"><defs><style>.cls-1{fill:#fff;}.cls-2{fill:#1e2f41;}</style></defs><title>ja-model-design</title><g id="Capa_2" data-name="Capa 2"><g id="Agergar_p_quitar_pplaca" data-name="Agergar p quitar pplaca"><path class="cls-1" d="M22,374.4H9.43a9.44,9.44,0,0,0,0,18.87H22a9.44,9.44,0,0,0,0-18.87Zm340.9,0H350.33a9.44,9.44,0,0,0,0,18.87H362.9a9.44,9.44,0,0,0,0-18.87Z"/><path class="cls-1" d="M302.2,140.63,288.58,87.22l18.85-25.14L280.2,41.14l-28.27,17.8L205.85,38V8.67H169.19L166.05,38l-44,23L95.88,39,70.75,65.22l19.9,22-21,54.46H39.33l1.05,35.6,31.41-1,18.86,54.45-19.9,24.1,24.08,22,24.09-19.9,48.18,23,1.05,28.28h37.7L210,275.73l47.12-17.8,24.09,19.89,23-30.37-16.75-24.08,17.8-47.13,33.51-3.14,1-30.38ZM189.62,213.94a56,56,0,1,1,56-56A56,56,0,0,1,189.62,213.94Z"/><path class="cls-2" d="M187.73,94a66,66,0,1,0,66,66A66,66,0,0,0,187.73,94Zm0,113.1A47.13,47.13,0,1,1,234.86,160,47.19,47.19,0,0,1,187.73,207.1Zm160-18.85V131.69H313.28a127.85,127.85,0,0,0-16.77-40.51l24.34-24.33-40-40L256.52,51.19A128,128,0,0,0,216,34.43V0H159.45V34.43a128.06,128.06,0,0,0-40.51,16.76L94.61,26.86l-40,40L78.94,91.18a127.81,127.81,0,0,0-16.75,40.51H27.76v56.56H62.19a127.71,127.71,0,0,0,16.75,40.51L54.61,253.1l40,40,24.33-24.34a128.06,128.06,0,0,0,40.51,16.76V320h18.86v29.32H162.6a36.92,36.92,0,0,0-35,25.13H54.2a9.44,9.44,0,0,0,0,18.87h72.18a37,37,0,0,0,36.22,29.85h50.27a36.93,36.93,0,0,0,36.21-29.85h69a9.44,9.44,0,0,0,0-18.87h-70.3a36.92,36.92,0,0,0-34.95-25.13h-15.7V320H216V285.52a128,128,0,0,0,40.52-16.76l24.33,24.34,40-40-24.34-24.33a127.85,127.85,0,0,0,16.77-40.51ZM212.87,368.12a18.07,18.07,0,0,1,0,36.13H162.6a18.07,18.07,0,1,1,0-36.13Zm83.31-190.78a109,109,0,0,1-19.47,47l-4.73,6.5,22.2,22.21-13.33,13.33-22.21-22.2-6.5,4.73a109.13,109.13,0,0,1-47,19.47l-8,1.25v31.41H178.31V269.68l-7.95-1.25a109.12,109.12,0,0,1-47-19.47l-6.52-4.73-22.19,22.2L81.28,253.09l22.19-22.2-4.72-6.5a109,109,0,0,1-19.47-47l-1.27-8H46.61V150.55H78l1.27-8a109,109,0,0,1,19.47-47l4.72-6.51L81.28,66.85,94.61,53.53,116.8,75.72,123.32,71a109.12,109.12,0,0,1,47-19.47l7.95-1.27V18.86h18.85V50.25l8,1.27a109.13,109.13,0,0,1,47,19.47l6.52,4.73,22.19-22.19,13.33,13.32L272,89.05l4.73,6.51a109,109,0,0,1,19.47,47l1.26,8h31.42v18.84H297.44Z"/></g></g></svg>