<svg xmlns="http://www.w3.org/2000/svg" viewBox="0 0 300 245"><defs><style>.cls-1{fill:#fff;}</style></defs><title>ja-rt</title><g id="Capa_2" data-name="Capa 2"><g id="icon_jarvis"><g id="ja-rt"><path class="cls-1" d="M98.54,86.91q-3.75-3.15-14-3.15H68V108.5H83.84a57.18,57.18,0,0,0,10-1.66A10,10,0,0,0,99.91,103,11.29,11.29,0,0,0,102.27,96Q102.27,90.07,98.54,86.91Z"/><path class="cls-1" d="M245.14,0H54.86A54.86,54.86,0,0,0,0,54.86V190.14A54.86,54.86,0,0,0,54.86,245H245.14A54.86,54.86,0,0,0,300,190.14V54.86A54.86,54.86,0,0,0,245.14,0ZM107.43,180.88l-20.1-37.19q-3.83-7.22-6.81-9.38a15.77,15.77,0,0,0-9.21-2.82H68v49.39H30.22V59.19H92.89q17.43,0,26.65,3a28.31,28.31,0,0,1,14.85,11.08Q140,81.36,140,93a32.54,32.54,0,0,1-16.2,29.39,45.31,45.31,0,0,1-13.2,4.81,37.8,37.8,0,0,1,9.79,4.49,38.27,38.27,0,0,1,6,6.4,48.18,48.18,0,0,1,5.27,7.56l18.21,35.26ZM266.21,89.24H227.86v91.64h-37.6V89.24H151.91v-30h114.3Z"/></g></g></g></svg>