<svg xmlns="http://www.w3.org/2000/svg" viewBox="0 0 468.93 374.26"><defs><style>.cls-1{fill:#fff;}</style></defs><title>ja-ring</title><g id="ring" data-name="ring"><g id="icon_jarvis"><path class="cls-1" d="M443.19,158.42H381.55A151.77,151.77,0,0,0,327.4,72c0-.5,0-1,0-1.5V25.75A25.75,25.75,0,0,0,301.69,0H167.24a25.75,25.75,0,0,0-25.75,25.75V70.47c0,.5,0,1,0,1.5a151.73,151.73,0,0,0-54.49,88H25.75A25.75,25.75,0,0,0,0,185.72V196.9a25.74,25.74,0,0,0,25.75,25.74h61.3A151.79,151.79,0,0,0,156.46,321a25.65,25.65,0,0,0-5.81,16.29v11.18a25.75,25.75,0,0,0,25.75,25.75H292.54a25.74,25.74,0,0,0,25.74-25.75V337.33A25.65,25.65,0,0,0,312.47,321a151.73,151.73,0,0,0,69.73-100h61a25.74,25.74,0,0,0,25.74-25.75V184.16A25.73,25.73,0,0,0,443.19,158.42Zm-208.72,135a102.13,102.13,0,0,1-97.18-70.75h4.6a25.74,25.74,0,0,0,25.75-25.74V185.72A25.75,25.75,0,0,0,141.89,160h-4.6a102.34,102.34,0,0,1,60-63.75h74.44a102.37,102.37,0,0,1,59.45,62.2h-4.09a25.74,25.74,0,0,0-25.75,25.74v11.18a25.75,25.75,0,0,0,25.75,25.75h5.09A102.13,102.13,0,0,1,234.47,293.39Z"/></g></g></svg>