<svg xmlns="http://www.w3.org/2000/svg" viewBox="0 0 301 246"><defs><style>.cls-1{fill:#fff;stroke:#bfbfbf;stroke-miterlimit:10;}</style></defs><title>ja-service</title><g id="Capa_2" data-name="Capa 2"><g id="icon_jarvis"><path class="cls-1" d="M245.64.5H55.36A54.86,54.86,0,0,0,.5,55.36V190.64A54.86,54.86,0,0,0,55.36,245.5H245.64a54.86,54.86,0,0,0,54.86-54.86V55.36A54.86,54.86,0,0,0,245.64.5Zm-46.7,161.94a40.56,40.56,0,0,1-18.1,15q-11.62,5.1-29.3,5.1-31,0-43-11.95T95,140.2L130.79,138q1.16,8.72,4.73,13.28,5.8,7.38,16.6,7.39,8.06,0,12.41-3.78a11.34,11.34,0,0,0,4.36-8.76q0-4.72-4.15-8.46t-19.26-7.06Q120.75,125,110.2,115.79A29.71,29.71,0,0,1,99.58,92.3,31.93,31.93,0,0,1,105,74.58q5.44-8.34,16.35-13.11t29.93-4.78q23.33,0,35.57,8.68T201.43,93L166,95q-1.41-8.22-5.93-12t-12.5-3.74q-6.56,0-9.87,2.78a8.52,8.52,0,0,0-3.32,6.77,6.78,6.78,0,0,0,2.73,5.23q2.67,2.4,12.62,4.48,24.66,5.31,35.32,10.75t15.52,13.49a34.17,34.17,0,0,1,4.86,18A38.59,38.59,0,0,1,198.94,162.44Z"/></g></g></svg>